<svg width="24" height="24" viewBox="0 0 24 24" fill="none" xmlns="http://www.w3.org/2000/svg">
<g clip-path="url(#clip0_1_2578)">
<path d="M12.0025 7.95683C9.73103 7.95683 7.89889 9.76035 7.89889 11.9963C7.89889 14.2322 9.73103 16.0357 12.0025 16.0357C14.2739 16.0357 16.106 14.2322 16.106 11.9963C16.106 9.76035 14.2739 7.95683 12.0025 7.95683ZM12.0025 14.6225C10.5346 14.6225 9.3346 13.4447 9.3346 11.9963C9.3346 10.5478 10.531 9.37011 12.0025 9.37011C13.4739 9.37011 14.6703 10.5478 14.6703 11.9963C14.6703 13.4447 13.4703 14.6225 12.0025 14.6225ZM17.231 7.7916C17.231 8.31543 16.8025 8.73379 16.2739 8.73379C15.7417 8.73379 15.3167 8.31191 15.3167 7.7916C15.3167 7.27129 15.7453 6.84941 16.2739 6.84941C16.8025 6.84941 17.231 7.27129 17.231 7.7916ZM19.9489 8.74785C19.8882 7.48574 19.5953 6.36777 18.656 5.44668C17.7203 4.52559 16.5846 4.2373 15.3025 4.17402C13.981 4.1002 10.0203 4.1002 8.69889 4.17402C7.42032 4.23379 6.28461 4.52207 5.34532 5.44316C4.40604 6.36426 4.11675 7.48222 4.05247 8.74433C3.97747 10.0451 3.97747 13.9439 4.05247 15.2447C4.11318 16.5068 4.40604 17.6248 5.34532 18.5459C6.28461 19.467 7.41675 19.7553 8.69889 19.8185C10.0203 19.8924 13.981 19.8924 15.3025 19.8185C16.5846 19.7588 17.7203 19.4705 18.656 18.5459C19.5917 17.6248 19.8846 16.5068 19.9489 15.2447C20.0239 13.9439 20.0239 10.0486 19.9489 8.74785ZM18.2417 16.6404C17.9632 17.3295 17.4239 17.8603 16.7203 18.1381C15.6667 18.5494 13.1667 18.4545 12.0025 18.4545C10.8382 18.4545 8.33461 18.5459 7.28461 18.1381C6.58461 17.8639 6.04532 17.333 5.76318 16.6404C5.34532 15.6033 5.44175 13.1424 5.44175 11.9963C5.44175 10.8502 5.34889 8.38574 5.76318 7.35215C6.04175 6.66308 6.58104 6.13223 7.28461 5.85449C8.33818 5.44316 10.8382 5.53809 12.0025 5.53809C13.1667 5.53809 15.6703 5.44668 16.7203 5.85449C17.4203 6.12871 17.9596 6.65957 18.2417 7.35215C18.6596 8.38926 18.5632 10.8502 18.5632 11.9963C18.5632 13.1424 18.6596 15.6068 18.2417 16.6404Z" fill="white"/>
</g>
<defs>
<clipPath id="clip0_1_2578">
<rect width="16" height="18" fill="white" transform="translate(4.00012 3)"/>
</clipPath>
</defs>
</svg>
